<?xml version="1.0" encoding="UTF-8"?>
<svg width="141px" height="162px" viewBox="0 0 141 162" version="1.1" xmlns="http://www.w3.org/2000/svg" xmlns:xlink="http://www.w3.org/1999/xlink">
    <!-- Generator: Sketch 46 (44423) - http://www.bohemiancoding.com/sketch -->
    <title>Logo</title>
    <desc>Created with Sketch.</desc>
    <defs></defs>
    <g id="Page-1" stroke="none" stroke-width="1" fill="none" fill-rule="evenodd">
        <g id="Mobile" transform="translate(-248.000000, -56.000000)">
            <g id="Logo" transform="translate(248.000000, 56.000000)">
                <polygon id="Path-2" fill="#1B2536" transform="translate(70.500000, 81.000000) scale(-1, -1) rotate(90.000000) translate(-70.500000, -81.000000) " points="-10 80.6991363 30.2485655 11 110.381326 11 151 80.6991363 110.381326 151 30.2485655 151"></polygon>
                <path d="M0.525679369,121.264959 C12.7515014,117.430954 21.9129913,111.105036 28.0101492,102.287205 C45.085252,77.5928521 56.5975627,43.9123122 67.0963787,52.3141573 C77.5951947,60.7160024 74.5944312,80.8017915 93.1041863,103.09649 C99.3851737,110.661837 115.195576,116.717993 140.535392,121.264959 L70.0056495,159 L0.525679369,121.264959 Z" id="Path-4" fill="#FFC952"></path>
                <path d="M0.505334685,121.273622 C8.25043049,120.828851 17.2188139,115.070978 27.410485,104 C43.0878518,86.9700374 54.8662295,58.7632393 62.2802996,64.9177436 C69.6943697,71.0722479 66.8201011,82.0105691 84.2311334,105.712039 C89.9631413,113.514966 108.736603,118.69149 140.551518,121.241611 L69.9982425,159 L0.505334685,121.273622 Z" id="Path-4" fill="#FF7473"></path>
                <path d="M0.505358314,121.274236 C9.81700008,118.754013 18.9887535,113.026528 28.0206186,104.091779 C47.0600117,85.2571103 51.7808368,76.5360351 57.6160684,81.2663716 C63.4513,85.9967082 59.2681778,97.0000565 72.8908927,110.060406 C81.5249206,118.338008 104.075429,122.06323 140.542416,121.236071 L70.2173747,161.518502 L0.505358314,121.274236 Z" id="Path-4" fill="#47B8E0"></path>
            </g>
        </g>
    </g>
</svg>